<svg height="383.998pt" viewBox="0 0 383.998 383.998" width="383.998pt" xmlns="http://www.w3.org/2000/svg"><path d="m299.3125 4.6875c-6.242188-6.25-16.382812-6.25-22.625 0l-272 272c-3 3-4.6875 7.070312-4.6875 11.308594v80c0 8.832031 7.167969 16 16 16h80c4.238281 0 8.3125-1.6875 11.3125-4.6875l272-272c6.246094-6.246094 6.246094-16.375 0-22.621094zm-187.3125 324.6875-17.375-17.378906 185.375-185.375 17.375 17.375zm-40-40-17.375-17.378906 185.375-185.375 17.375 17.375zm-40 62.621094v-57.367188l57.375 57.367188zm288-230.621094-57.375-57.378906 25.375-25.367188 57.367188 57.367188zm0 0"/></svg>